#N canvas 80 173 1042 588 10;
#X obj 74 220 osc~ 440;
#X obj 73 331 dac~;
#X obj 71 189 mtof;
#X obj 74 269 *~ 0.5;
#X floatatom 69 133 5 0 0 0 - - -;
#X obj 65 93 tabread sticky;
#X obj 69 156 + 48;
#X floatatom 19 177 5 0 0 0 - - -;
#X floatatom 18 214 5 0 0 0 - - -;
#X obj 136 -233 t b b b;
#X msg 155 -192 60000;
#X floatatom 212 -201 5 0 0 0 - - -;
#X obj 155 -155 /;
#X obj 71 -84 metro;
#X obj 136 -259 bng 15 250 50 0 empty empty empty 17 7 0 10 -262144
-1 -1;
#X floatatom 263 -138 5 0 0 0 - - -;
#X obj 155 -124 i;
#X floatatom 263 -101 5 0 0 0 - - -;
#X msg 64 -260 0;
#X msg 230 -237 60;
#X obj 251 -269 loadbang;
#X obj 64 -38 i;
#X obj 121 -36 + 1;
#X floatatom 65 -1 5 0 0 0 - - -;
#X floatatom 64 59 5 0 0 0 - - -;
#X msg 102 -63 0;
#X text 114 -83 Call function every X miliseconds;
#X text 320 -100 X (60000 / Y);
#X text 247 -210 Y;
#X text 105 0 Counter of amount of times called;
#X text 100 30 Modulus 8;
#X text 132 -62 Reset;
#X text 165 -259 Start;
#X text 96 -260 Stop;
#X text 102 60 Enables a "BPM" (Beats Per Minute) \, as the function
cycles between 1-8.;
#X obj 344 -23 table sticky 8;
#X msg 345 -61 \; sticky 0 12 3 5 7 8 10 12 2 6;
#X obj 65 29 % 8;
#X connect 0 0 3 0;
#X connect 2 0 0 0;
#X connect 2 0 8 0;
#X connect 3 0 1 0;
#X connect 3 0 1 1;
#X connect 4 0 6 0;
#X connect 5 0 4 0;
#X connect 6 0 2 0;
#X connect 6 0 7 0;
#X connect 9 0 13 0;
#X connect 9 1 10 0;
#X connect 9 2 11 0;
#X connect 10 0 12 0;
#X connect 11 0 12 1;
#X connect 12 0 15 0;
#X connect 12 0 16 0;
#X connect 13 0 21 0;
#X connect 14 0 9 0;
#X connect 16 0 17 0;
#X connect 16 0 13 1;
#X connect 18 0 13 0;
#X connect 19 0 11 0;
#X connect 20 0 19 0;
#X connect 21 0 22 0;
#X connect 21 0 23 0;
#X connect 22 0 21 1;
#X connect 23 0 37 0;
#X connect 24 0 5 0;
#X connect 25 0 21 1;
#X connect 37 0 24 0;
