#N canvas 130 94 707 525 10;
#X obj 88 303 adc~;
#X msg 39 353 start;
#X obj 159 413 writesf~ 2;
#X msg 43 394 stop;
#X msg 235 352 open whatever.wav;
#X connect 0 0 2 0;
#X connect 0 1 2 1;
#X connect 1 0 2 0;
#X connect 3 0 2 0;
#X connect 4 0 2 0;
