#N canvas -1208 188 824 566 10;
#X obj 76 32 t b b b;
#X msg 95 73 60000;
#X floatatom 152 64 5 0 0 0 - - -;
#X obj 95 110 /;
#X obj 11 181 metro;
#X obj 76 6 bng 15 250 50 0 empty empty empty 17 7 0 10 -262144 -1
-1;
#X floatatom 203 127 5 0 0 0 - - -;
#X obj 95 141 i;
#X floatatom 203 164 5 0 0 0 - - -;
#X msg 4 5 0;
#X msg 170 28 60;
#X obj 191 -4 loadbang;
#X obj 4 227 i;
#X obj 61 229 + 1;
#X floatatom 5 264 5 0 0 0 - - -;
#X obj 5 294 % 8;
#X floatatom 4 324 5 0 0 0 - - -;
#X msg 42 202 0;
#X text 54 182 Call function every X miliseconds;
#X text 260 165 X (60000 / Y);
#X text 187 55 Y;
#X text 45 265 Counter of amount of times called;
#X text 40 295 Modulus 8;
#X text 72 203 Reset;
#X text 105 6 Start;
#X text 36 5 Stop;
#X text 42 325 Enables a "BPM" (Beats Per Minute) \, as the function
cycles between 1-8.;
#X text -58 -39 BPM Function;
#X connect 0 0 4 0;
#X connect 0 1 1 0;
#X connect 0 2 2 0;
#X connect 1 0 3 0;
#X connect 2 0 3 1;
#X connect 3 0 6 0;
#X connect 3 0 7 0;
#X connect 4 0 12 0;
#X connect 5 0 0 0;
#X connect 7 0 8 0;
#X connect 7 0 4 1;
#X connect 9 0 4 0;
#X connect 10 0 2 0;
#X connect 11 0 10 0;
#X connect 12 0 13 0;
#X connect 12 0 14 0;
#X connect 13 0 12 1;
#X connect 14 0 15 0;
#X connect 15 0 16 0;
#X connect 17 0 12 1;
