#N canvas -9 -9 1920 980 10;
#X obj 244 -533 cnv 15 600 350 empty empty empty 20 12 0 14 -261234
-66577 0;
#X obj 350 -481 key;
#X floatatom 350 -455 5 0 0 0 - - -;
#X obj 350 -432 sel 43;
#X obj 311 -328 f;
#X floatatom 311 -285 5 0 0 0 - - -;
#X obj 282 -416 vsl 15 128 0 15 0 0 empty empty empty 0 -9 0 10 -204800
-1 -1 8467 1;
#X obj 337 -329 + \$1;
#X msg 350 -400 1;
#X msg 522 -400 -1;
#X obj 522 -481 key;
#X floatatom 522 -455 5 0 0 0 - - -;
#X obj 522 -432 sel 45;
#X obj 311 -415 bng 15 250 50 0 empty empty empty 17 7 0 10 -262144
-1 -1;
#X obj 574 -268 sel 1;
#X obj 575 -293 > 15;
#X msg 574 -242 15;
#X obj 569 -372 < 1;
#X obj 569 -347 sel 1;
#X msg 569 -324 0;
#X text 357 -497 +;
#X text 528 -498 -;
#X text 617 -341 If statement: If below 1 \, set to 0;
#X text 615 -264 If statement: If above 15 \, set to 15;
#X text 549 -401 Changes counter to -;
#X text 376 -401 Changes counter to +;
#X text 354 -519 + / - key-control for slider;
#X connect 1 0 2 0;
#X connect 2 0 3 0;
#X connect 3 0 13 0;
#X connect 3 0 8 0;
#X connect 4 0 7 0;
#X connect 4 0 5 0;
#X connect 4 0 15 0;
#X connect 4 0 17 0;
#X connect 5 0 6 0;
#X connect 6 0 5 0;
#X connect 7 0 4 1;
#X connect 8 0 7 1;
#X connect 9 0 7 1;
#X connect 10 0 11 0;
#X connect 11 0 12 0;
#X connect 12 0 9 0;
#X connect 12 0 13 0;
#X connect 13 0 4 0;
#X connect 14 0 16 0;
#X connect 15 0 14 0;
#X connect 16 0 4 0;
#X connect 17 0 18 0;
#X connect 18 0 19 0;
#X connect 19 0 4 0;
